<svg xmlns="http://www.w3.org/2000/svg" viewBox="0 0 1100 760" role="img" aria-labelledby="title desc">
  <title id="title">Generic two-bedroom apartment floor plan preview</title>
  <desc id="desc">A preview of the generic two-bedroom apartment floor plan with the front door opening into the living room, kitchen off the living room, hallway, one bathroom, hall closet, one bedroom off the hall, and one bedroom at the end of the hall.</desc>
  <defs>
    <style>
      .label{font-family:Arial,sans-serif;font-weight:700;fill:#32124f}
      .small{font-family:Arial,sans-serif;font-weight:700;fill:#6f4a8e}
      .wall{stroke:#32124f;stroke-width:13;stroke-linecap:square;stroke-linejoin:miter;fill:none}
      .inner{stroke:#32124f;stroke-width:7;stroke-linecap:square;stroke-linejoin:miter;fill:none}
      .door{stroke:#6f4a8e;stroke-width:5;stroke-linecap:round;fill:none}
      .window{stroke:#77a8c6;stroke-width:11;stroke-linecap:round}
      .fixture{stroke:#6f4a8e;stroke-width:4;fill:none}
      .fixtureFill{fill:#fffdf9;stroke:#6f4a8e;stroke-width:4}
    </style>
  </defs>
  <rect width="1100" height="760" fill="#fbf7ef"/>
  <text x="550" y="52" text-anchor="middle" class="small" font-size="34">2 + 1 | 1200 SQ FT</text>

  <rect x="200" y="650" width="300" height="68" fill="#efe7d9" stroke="#d8af4f" stroke-width="5"/>
  <text x="350" y="690" text-anchor="middle" class="small" font-size="26">Balcony</text>

  <rect x="70" y="90" width="960" height="560" fill="#fffdf9"/>
  <rect x="92" y="112" width="246" height="176" fill="#efe7d9" stroke="#d8af4f" stroke-width="4"/>
  <rect x="92" y="332" width="383" height="296" fill="#f7f1e8" stroke="#d8af4f" stroke-width="4"/>
  <rect x="520" y="112" width="220" height="178" fill="#ffffff" stroke="#6f4a8e" stroke-width="4"/>
  <rect x="520" y="450" width="220" height="178" fill="#f7f1e8" stroke="#d8af4f" stroke-width="4"/>
  <rect x="777" y="112" width="231" height="516" fill="#f7f1e8" stroke="#d8af4f" stroke-width="4"/>
  <rect x="592" y="310" width="144" height="50" fill="#ffffff" stroke="#6f4a8e" stroke-width="4"/>
  <rect x="560" y="580" width="150" height="42" fill="#ffffff" stroke="#6f4a8e" stroke-width="4"/>
  <rect x="812" y="580" width="160" height="42" fill="#ffffff" stroke="#6f4a8e" stroke-width="4"/>

  <path class="wall" d="M70 90H1030V650H470M240 650H70V570M70 490V90"/>
  <path class="inner" d="M70 310H180M497 90V300M497 430V650M497 300H590M660 300H757M497 430H590M660 430H757M757 90V330M757 405V650"/>

  <line class="window" x1="128" y1="90" x2="292" y2="90"/>
  <line class="window" x1="820" y1="90" x2="984" y2="90"/>
  <line class="window" x1="1030" y1="162" x2="1030" y2="302"/>
  <line class="window" x1="1030" y1="438" x2="1030" y2="590"/>
  <line class="window" x1="548" y1="650" x2="706" y2="650"/>
  <rect x="250" y="640" width="210" height="18" rx="9" fill="#77a8c6"/>

  <path class="door" d="M70 570H150M70 570Q150 570 150 490"/>
  <path class="door" d="M590 300V232M590 300Q660 300 660 232"/>
  <path class="door" d="M660 430V505M660 430Q590 430 590 505"/>
  <path class="door" d="M757 405H830M757 405Q830 405 830 330"/>

  <rect x="108" y="126" width="200" height="34" class="fixtureFill"/>
  <rect x="108" y="160" width="42" height="104" class="fixtureFill"/>
  <circle cx="210" cy="144" r="12" class="fixture"/>
  <rect x="540" y="126" width="160" height="42" rx="6" class="fixtureFill"/>
  <circle cx="694" cy="224" r="18" class="fixture"/>
  <rect x="540" y="208" width="52" height="40" rx="6" class="fixtureFill"/>
  <line x1="610" y1="324" x2="718" y2="324" class="fixture"/>
  <line x1="578" y1="592" x2="692" y2="592" class="fixture"/>
  <line x1="832" y1="592" x2="952" y2="592" class="fixture"/>

  <text x="215" y="224" text-anchor="middle" class="label" font-size="34">Kitchen</text>
  <text x="284" y="480" text-anchor="middle" class="label" font-size="40">Living Room</text>
  <text x="150" y="544" class="small" font-size="22">Front Door</text>
  <text x="630" y="196" text-anchor="middle" class="label" font-size="32">Bath</text>
  <text x="664" y="350" text-anchor="middle" class="small" font-size="18">Hall Closet</text>
  <text x="627" y="394" text-anchor="middle" class="label" font-size="30">Hall</text>
  <text x="630" y="540" text-anchor="middle" class="label" font-size="32">Bedroom 1</text>
  <text x="635" y="616" text-anchor="middle" class="small" font-size="18">Closet</text>
  <text x="892" y="356" text-anchor="middle" class="label" font-size="36">Bedroom 2</text>
  <text x="892" y="616" text-anchor="middle" class="small" font-size="18">Closet</text>
</svg>
